<!-- icon666.com - MILLIONS OF FREE VECTOR ICONS --><svg id="Capa_1" enable-background="new 0 0 512 512" viewBox="0 0 512 512" xmlns="http://www.w3.org/2000/svg"><g><g><g><g><g><g><g><circle cx="256" cy="256" fill="#a3d4ff" r="256" style="fill: rgb(25, 118, 210);"></circle></g></g></g></g></g></g><path d="m512 256c0-12.705-.926-25.193-2.713-37.401l-77.834-77.834-19.421 18.111-48.435-48.665-267.387 252.05 149.538 149.538c3.4.133 6.818.201 10.252.201 141.385 0 256-114.615 256-256z" fill="#65b1fc" style="fill: rgb(25, 118, 210);"></path><g><path d="m248.187 390.789h27.106v48.847h-27.106z" fill="#ffce00" style="fill: rgb(255, 255, 255);"></path></g><g><path d="m261.169 418.068c-13.054 0-23.636-10.582-23.636-23.636v-44.212h47.272v44.212c.001 13.053-10.582 23.636-23.636 23.636z" fill="#7584f2" style="fill: rgb(255, 255, 255);"></path></g><g><path d="m175.533 366.723-54.734 17.42-71.061-89.034 241.161-28.43z" fill="#7584f2" style="fill: rgb(255, 255, 255);"></path></g><g><path d="m255.891 335.028-159.681 27.233-42.663-50.32 203.364-14.63z" fill="#ffce00" style="fill: rgb(255, 255, 255);"></path></g><g><path d="m316.216 91.128c-37.757 0-68.365 30.607-68.365 68.364v130.178l-72.318 77.052h72.318 31.453c13.285 0 25.991-2.468 37.695-6.958l10-96.767-9.999-171.85c-.262-.002-.521-.019-.784-.019z" fill="#ff6c52" style="fill: rgb(255, 255, 255);"></path></g><g><path d="m373.54 122.226c-12.196-18.722-33.314-31.098-57.324-31.098-.135 0-.268.009-.402.01v269.078c40.146-14.845 68.767-53.463 68.767-98.769v-71.919z" fill="#ff432e" style="fill: rgb(255, 255, 255);"></path></g><g><path d="m412.29 160.017h-48.008v26.233h25.449c12.459 0 22.559-10.1 22.559-22.558z" fill="#ff9500" style="fill: rgb(255, 255, 255);"></path></g><g><path d="m439.059 168.305h-74.774v-40.858h39.638c19.405 0 35.136 15.731 35.136 35.136z" fill="#fdba12" style="fill: rgb(255, 255, 255);"></path></g><g><path d="m373.543 122.23h-57.729v43.398c7.839 14.244 22.987 23.898 40.395 23.898h28.373v-30.035c-.001-13.744-4.058-26.542-11.039-37.261z" fill="#e9edf5" style="fill: rgb(255, 255, 255);"></path></g><g><path d="m246.913 187.402-50.764 50.764-13.049 17.124-18.965 14.891-31.656 31.656 20.299 20.299c37.522 37.522 98.358 37.522 135.88 0l28.342-28.343 10-59.172-10-59.843c-23.023-10.532-51.134-6.329-70.087 12.624z" fill="#ff432e" style="fill: rgb(255, 255, 255);"></path></g><g><path d="m335.152 187.402c-5.737-5.737-12.318-10.105-19.338-13.141v120.718l19.338-19.338c24.366-24.367 24.366-63.872 0-88.239z" fill="#db0404" style="fill: rgb(255, 255, 255);"></path></g><g><path d="m206.789 248.683-10.578-10.579-32.076 32.077 16.683 16.683c37.522 37.522 98.358 37.522 135.88 0l.302-.302 2.789-10.97-2.789-8.568c-35.864 17.572-80.393 11.476-110.211-18.341z" fill="#fff" style="fill: rgb(255, 255, 255);"></path></g><g><path d="m342.669 248.683c-8.034 8.034-17.142 14.334-26.856 18.927v20.094c.292-.285.595-.551.884-.84l32.359-32.358c2.07-5.234 3.405-10.692 4.004-16.214z" fill="#e9edf5" style="fill: rgb(255, 255, 255);"></path></g><g><circle cx="347.353" cy="151.639" fill="#636978" r="10.682" style="fill: rgb(255, 255, 255);"></circle></g><g><path d="m237.533 433.796h79.467v17.788h-79.467z" fill="#ffce00" style="fill: rgb(255, 255, 255);"></path></g></g></svg>