<!-- icon666.com - MILLIONS OF FREE VECTOR ICONS --><svg viewBox="0 0 512 512" xmlns="http://www.w3.org/2000/svg"><path d="m512 256c0 141.386719-114.613281 256-256 256s-256-114.613281-256-256 114.613281-256 256-256 256 114.613281 256 256zm0 0" fill="#4a5be5" style="fill: rgb(25, 118, 210);"></path><path d="m512 256c0-28.855469-4.777344-56.59375-13.578125-82.472656l-67.175781-67.171875c-4.699219 6.8125-11.847656 16.164062-17.898438 23.910156l-12.097656-11.957031c-.933594-1.382813-2.464844-2.359375-4.28125-2.511719-2.851562-.246094-5.46875 1.640625-6.085938 4.4375-1.140624 5.164063-3.550781 12.03125-7.921874 15.496094-.925782-.046875-1.855469-.074219-2.796876-.074219h-15.066406l-17.113281-17.699219c-1.164063-1.472656-3.03125-2.332031-5.007813-2.160156-3.445312.292969-5.867187 3.535156-5.132812 6.914063.945312 4.363281 2.75 10.199218 6.058594 15.324218-.902344.277344-1.792969.585938-2.679688.90625-.046875-.070312-.101562-.140625-.148437-.214844 0 0-.078125.128907-.210938.351563l-32.164062-32.726563s-14.203125 22.457032-6.800781 46.164063h-132.234376c-13.289062 0-25.824218 3.203125-36.910156 8.84375h-13.941406c-31.429688 0-57.003906 25.570313-57.003906 57v66.792969l5.738281 15.300781 20.601563 20.230469v80.722656l102.035156 102.035156c21.003906 5.574219 43.058594 8.558594 65.816406 8.558594 141.386719 0 256-114.613281 256-256zm0 0" fill="#1c2ede" style="fill: rgb(25, 118, 210);"></path><path d="m105.042969 309.53125h47.238281v91.875h-47.238281zm0 0" fill="#fff5cb" style="fill: rgb(255, 255, 255);"></path><path d="m105.042969 379.65625h47.238281v21.75h-47.238281zm0 0" fill="#5a422d" style="fill: rgb(255, 255, 255);"></path><path d="m297.601562 309.53125h47.238282v91.875h-47.238282zm0 0" fill="#ffed97" style="fill: rgb(255, 255, 255);"></path><path d="m297.601562 379.65625h47.238282v21.75h-47.238282zm0 0" fill="#5a422d" style="fill: rgb(255, 255, 255);"></path><path d="m266.964844 342.40625c-.992188-1.402344-2.328125-2.410156-3.789063-2.972656-2.011719-.773438-3.789062-2.042969-5.03125-3.804688l-1.078125-1.527344c3.699219-5.507812 5.859375-12.140624 5.859375-19.273437 0-19.121094-15.503906-34.621094-34.625-34.621094-19.121093 0-34.621093 15.5-34.621093 34.621094 0 7.132813 2.160156 13.765625 5.859374 19.273437l-1.078124 1.527344c-1.242188 1.761719-3.023438 3.03125-5.03125 3.804688-1.460938.5625-2.796876 1.570312-3.789063 2.972656-2.535156 3.597656-1.859375 8.4375 1.507813 10.8125 3.371093 2.375 8.15625 1.390625 10.691406-2.203125.992187-1.40625 1.492187-3.003906 1.53125-4.570313.054687-2.089843.625-4.132812 1.800781-5.863281 5.15625 4.636719 11.71875 7.738281 18.964844 8.609375v.40625c0 2.152344-.722657 4.21875-1.917969 6.007813-.871094 1.300781-1.382812 2.894531-1.382812 4.617187 0 4.394532 3.34375 7.960938 7.46875 7.960938 4.121093 0 7.464843-3.566406 7.464843-7.960938 0-1.722656-.511719-3.316406-1.382812-4.617187-1.195313-1.789063-1.917969-3.855469-1.917969-6.007813v-.40625c7.25-.871094 13.808594-3.972656 18.96875-8.609375 1.171875 1.730469 1.746094 3.773438 1.796875 5.863281.039063 1.566407.539063 3.164063 1.53125 4.570313 2.535156 3.59375 7.324219 4.578125 10.691406 2.203125 3.367188-2.378906 4.042969-7.21875 1.507813-10.8125zm0 0" fill="#ff9577" style="fill: rgb(255, 255, 255);"></path><path d="m265.460938 353.21875c-3.371094 2.371094-8.160157 1.390625-10.699219-2.207031-.992188-1.402344-1.492188-3-1.53125-4.5625-.050781-2.097657-.621094-4.140625-1.800781-5.871094-5.148438 4.640625-11.710938 7.742187-18.960938 8.613281v.410156c0 2.148438.722656 4.207032 1.921875 6 .871094 1.308594 1.378906 2.898438 1.378906 4.617188 0 4.402344-3.339843 7.960938-7.46875 7.960938v-87.980469c19.121094 0 34.621094 15.511719 34.621094 34.628906 0 7.132813-2.160156 13.761719-5.851563 19.273437l1.070313 1.527344c1.25 1.761719 3.03125 3.03125 5.039063 3.800782 1.460937.558593 2.789062 1.570312 3.789062 2.980468 2.53125 3.589844 1.851562 8.429688-1.507812 10.808594zm0 0" fill="#ff633e" style="fill: rgb(255, 255, 255);"></path><path d="m304.195312 152.519531h-134.53125c-13.289062 0-25.824218 3.199219-36.910156 8.84375h-13.941406c-31.429688 0-57.003906 25.570313-57.003906 57v36.214844h11.476562v-36.214844c0-24.058593 18.765625-43.808593 42.425782-45.410156-16.898438 14.9375-27.5625 36.757813-27.5625 61.082031v167.371094h47.238281v-86.578125h185.832031v86.578125h47.238281v-184.628906c0-35.488282-28.769531-64.257813-64.261719-64.257813zm0 0" fill="#fff" style="fill: rgb(255, 255, 255);"></path><path d="m368.460938 216.78125v184.628906h-47.242188v-86.582031h-92.917969v-162.308594h75.898438c35.492187 0 64.261719 28.769531 64.261719 64.261719zm0 0" fill="#fff5cb" style="fill: rgb(255, 255, 255);"></path><path d="m61.808594 253.472656v31.679688l5.738281 15.300781 5.738281-15.300781v-31.679688zm0 0" fill="#8a6746" style="fill: rgb(255, 255, 255);"></path><path d="m343.136719 259.871094c-.402344-13.164063-10.945313-23.988282-25.125-27.300782-2.996094-.699218-5.070313-3.320312-5.15625-6.398437 0-.019531 0-.039063 0-.058594-.339844-11.136719-11.261719-19.84375-24.394531-19.441406-13.128907.402344-23.5 9.757813-23.160157 20.894531.183594 6.023438 3.460938 11.332032 8.503907 14.875 2.667968 1.875 3.625 5.304688 2.289062 8.277344-1.570312 3.5-2.378906 7.308594-2.257812 11.269531.496093 16.234375 16.410156 28.917969 35.546874 28.332031 19.136719-.582031 34.246094-14.214843 33.753907-30.449218zm0 0" fill="#644b32" style="fill: rgb(255, 255, 255);"></path><path d="m401.996094 144.585938s19.6875-24.363282 29.25-38.230469c0 0 22.472656 35.511719-3.824219 64.375zm0 0" fill="#644b32" style="fill: rgb(255, 255, 255);"></path><path d="m344.878906 139.496094c-3.953125-5.441406-6-12-7.035156-16.785156-.734375-3.378907 1.6875-6.621094 5.132812-6.914063 2.851563-.242187 5.46875 1.640625 6.085938 4.4375 1.277344 5.785156 4.140625 13.714844 9.570312 16.59375zm0 0" fill="#ffe670" style="fill: rgb(255, 255, 255);"></path><path d="m395.066406 139.496094c3.957032-5.441406 6-12 7.039063-16.785156.730469-3.378907-1.691407-6.621094-5.132813-6.914063-2.855468-.242187-5.472656 1.640625-6.089844 4.4375-1.277343 5.785156-4.136718 13.714844-9.566406 16.59375zm0 0" fill="#ffcf00" style="fill: rgb(255, 255, 255);"></path><path d="m380.167969 135.660156h-20.386719c-8.761719 0-17.027344 2.089844-24.351562 5.78125-5.621094-7.03125-19.261719-24.257812-26.730469-35.085937 0 0-21.082031 33.316406 1.492187 61.636719-2.957031 6.6875-4.605468 14.078124-4.605468 21.863281v45.570312c0 29.929688 24.261718 54.195313 54.195312 54.195313h20.386719c29.929687 0 54.195312-24.265625 54.195312-54.195313v-45.570312c0-29.929688-24.265625-54.195313-54.195312-54.195313zm0 0" fill="#fff" style="fill: rgb(255, 255, 255);"></path><path d="m434.359375 189.859375v45.5625c0 29.9375-24.257813 54.199219-54.1875 54.199219h-10.203125v-153.960938h10.203125c29.929687 0 54.1875 24.261719 54.1875 54.199219zm0 0" fill="#fff5cb" style="fill: rgb(255, 255, 255);"></path><path d="m359.78125 289.621094h20.386719c29.929687 0 54.195312-24.265625 54.195312-54.195313v-15.113281h-128.777343v15.113281c0 29.929688 24.261718 54.195313 54.195312 54.195313zm0 0" fill="#ff9577" style="fill: rgb(255, 255, 255);"></path><path d="m434.359375 220.308594v15.113281c0 29.9375-24.257813 54.199219-54.1875 54.199219h-10.203125v-69.3125zm0 0" fill="#ff633e" style="fill: rgb(255, 255, 255);"></path><path d="m361.566406 252.664062c0-8.183593-4.871094-14.820312-10.878906-14.820312s-10.878906 6.636719-10.878906 14.820312c0 8.1875 4.871094 14.824219 10.878906 14.824219s10.878906-6.636719 10.878906-14.824219zm0 0" fill="#ff633e" style="fill: rgb(255, 255, 255);"></path><path d="m400.136719 252.664062c0-8.183593-4.871094-14.820312-10.878907-14.820312-6.007812 0-10.875 6.636719-10.875 14.820312 0 8.1875 4.867188 14.824219 10.875 14.824219 6.007813 0 10.878907-6.636719 10.878907-14.824219zm0 0" fill="#ee2600" style="fill: rgb(255, 255, 255);"></path><path d="m355.152344 182.375c0 6.433594-5.210938 11.644531-11.644532 11.644531-6.429687 0-11.644531-5.210937-11.644531-11.644531 0-6.429688 5.214844-11.644531 11.644531-11.644531 6.433594 0 11.644532 5.214843 11.644532 11.644531zm0 0" fill="#715539" style="fill: rgb(255, 255, 255);"></path><path d="m408.082031 182.375c0 6.433594-5.210937 11.644531-11.644531 11.644531-6.429688 0-11.644531-5.210937-11.644531-11.644531 0-6.429688 5.214843-11.644531 11.644531-11.644531 6.433594 0 11.644531 5.214843 11.644531 11.644531zm0 0" fill="#644b32" style="fill: rgb(255, 255, 255);"></path><path d="m128.816406 194.457031c0 20.289063 16.269532 36.734375 36.335938 36.734375 7.078125 0 13.679687-2.046875 19.261718-5.585937 9.152344-5.800781 19.886719-8.761719 30.648438-7.503907 1.382812.160157 2.785156.242188 4.210938.242188 20.066406 0 36.335937-16.445312 36.335937-36.734375 0-7.101563-1.992187-13.726563-5.445313-19.34375-1.894531-3.085937-3.449218-6.355469-4.628906-9.746094h-75.871094c-10.15625 0-19.867187 1.871094-28.835937 5.261719-.804687 5.84375-2.78125 11.484375-6.050781 16.507812-3.769532 5.789063-5.960938 12.722657-5.960938 20.167969zm0 0" fill="#8a6746" style="fill: rgb(255, 255, 255);"></path><path d="m255.609375 181.609375c0 17.140625-11.609375 31.53125-27.308594 35.582031v-64.671875h17.230469c1.1875 3.390625 2.738281 6.660157 4.628906 9.742188 3.460938 5.617187 5.449219 12.25 5.449219 19.347656zm0 0" fill="#644b32" style="fill: rgb(255, 255, 255);"></path><path d="m124.726562 290.339844c0-19.144532-13.164062-34.664063-29.40625-34.664063-2.472656 0-4.875.363281-7.171874 1.042969v63.253906c0 1.347656.035156 2.6875.097656 4.015625 2.265625.660157 4.636718 1.019531 7.074218 1.019531 16.238282-.003906 29.40625-15.523437 29.40625-34.667968zm0 0" fill="#8a6746" style="fill: rgb(255, 255, 255);"></path><path d="m88.148438 379.65625h47.238281v21.75h-47.238281zm0 0" fill="#8a6746" style="fill: rgb(255, 255, 255);"></path><path d="m321.21875 379.65625h47.238281v21.75h-47.238281zm0 0" fill="#644b32" style="fill: rgb(255, 255, 255);"></path></svg>