<!-- icon666.com - MILLIONS OF FREE VECTOR ICONS --><svg id="Capa_1" enable-background="new 0 0 512 512" viewBox="0 0 512 512" xmlns="http://www.w3.org/2000/svg"><g><circle cx="256" cy="256" fill="#afea94" r="256" style="fill: rgb(25, 118, 210);"></circle><path d="m247.178 297.121-89.428-89.428-1.814 5.941-8.522-8.522-70.253 12.794 69.943 69.943-50.835 50.835 3.706 58.413 110.945 110.945c14.635 2.599 29.699 3.958 45.08 3.958 141.385 0 256-114.615 256-256 0-26.018-3.894-51.124-11.109-74.782l-118.025-118.025z" fill="#00dc80" style="fill: rgb(25, 118, 210);"></path><g><path d="m382.866 63.193v65.27h-62.085z" fill="#373c41" style="fill: rgb(255, 255, 255);"></path><path d="m262.418 63.193v65.27h62.086z" fill="#4b5055" style="fill: rgb(255, 255, 255);"></path></g><g><path d="m143.453 414.279c-21.323 0-42.162-10.758-54.081-30.243-18.203-29.762-8.799-68.786 20.962-86.99l21.606-13.214c17.712-10.833 23.308-34.057 12.475-51.77-10.834-17.712-34.058-23.307-51.769-12.474-6.035 3.691-13.92 1.79-17.61-4.244-3.691-6.035-1.791-13.919 4.244-17.61 29.759-18.202 68.783-8.802 86.989 20.962 18.203 29.762 8.799 68.786-20.962 86.99l-21.605 13.214c-17.712 10.833-23.308 34.057-12.475 51.77 10.834 17.713 34.058 23.308 51.77 12.474 6.035-3.692 13.92-1.791 17.61 4.244 3.691 6.035 1.791 13.919-4.244 17.61-10.278 6.287-21.662 9.281-32.91 9.281z" fill="#4b5055" style="fill: rgb(255, 255, 255);"></path></g><path d="m322.56 210.18-54.294-16.14-78.706 75.026c-22.004 19.815-35.841 48.522-35.841 80.464 0 1.89.065 3.765.161 5.631-.096 1.531-.161 3.071-.161 4.627 0 16.01 5.172 30.805 13.917 42.835.841 1.491 1.704 2.968 2.612 4.414h.865c13.379 15.712 33.291 25.69 55.545 25.69 18.815 0 35.964-7.127 48.901-18.826 3.004 10.854 12.945 18.826 24.755 18.826 9.508 0 17.804-5.169 22.246-12.847l12.876-115.35z" fill="#4b5055" style="fill: rgb(255, 255, 255);"></path><path d="m370.226 204.199-47.666 4.151v211.531c4.443 7.677 12.738 12.847 22.246 12.847 14.188 0 25.69-11.502 25.69-25.69 0-1.261-.095-2.5-.27-3.713z" fill="#373c41" style="fill: rgb(255, 255, 255);"></path><g><path d="m359.127 159.268-36.567 73.133s-73.133-22.21-73.133-62.6 32.743-83.666 73.133-83.666z" fill="#4b5055" style="fill: rgb(255, 255, 255);"></path><path d="m322.56 187.375-12.876-14.744h12.876l2.439 4.994z" fill="#a160e4" style="fill: rgb(255, 255, 255);"></path><path d="m395.694 169.801c0 40.39-73.133 62.6-73.133 62.6v-146.266c40.39 0 73.133 43.276 73.133 83.666z" fill="#373c41" style="fill: rgb(255, 255, 255);"></path></g><g><path d="m308.109 158.251s-14.044 8.018-26.138 3.598-17.659-19.603-17.659-19.603 14.044-8.018 26.138-3.598 17.659 19.603 17.659 19.603z" fill="#fd5" style="fill: rgb(255, 255, 255);"></path><path d="m286.21 162.577s-6.531-5.52-6.531-12.328c0-6.809 6.531-12.328 6.531-12.328s6.531 5.52 6.531 12.328c0 6.809-6.531 12.328-6.531 12.328z" fill="#4b5055" style="fill: rgb(255, 255, 255);"></path><path d="m337.012 158.251s14.044 8.018 26.138 3.598 17.659-19.603 17.659-19.603-14.044-8.018-26.138-3.598-17.659 19.603-17.659 19.603z" fill="#fc0" style="fill: rgb(255, 255, 255);"></path><path d="m358.911 162.577s6.531-5.52 6.531-12.328c0-6.809-6.531-12.328-6.531-12.328s-6.531 5.52-6.531 12.328c0 6.809 6.531 12.328 6.531 12.328z" fill="#373c41" style="fill: rgb(255, 255, 255);"></path></g><path d="m322.56 187.375v-14.744h12.876z" fill="#6d36ab" style="fill: rgb(255, 255, 255);"></path></g></svg>